<svg width="1920" height="1080" viewBox="0 0 1920 1080" fill="none" xmlns="http://www.w3.org/2000/svg">
<rect width="1920" height="1080" fill="#000124"/>
<path d="M203.147 59.3224L280.87 35.624L262.855 113.741L203.147 59.3224Z" stroke="#5475FC" stroke-width="3"/>
<path d="M151.598 428.708L262.079 439.84L197.047 528.47L151.598 428.708Z" fill="#5475FC" stroke="#5475FC" stroke-width="3"/>
<path d="M239.199 299.5L290.273 304.645L260.209 345.618L239.199 299.5Z" fill="#1B1C4A" stroke="#1B1C4A" stroke-width="3"/>
<path d="M200.062 108.151L241.179 239.272L105.278 208.768L200.062 108.151Z" stroke="#5475FC" stroke-width="3"/>
<path d="M114.284 611.483L217.803 648.016L133.907 718.009L114.284 611.483Z" stroke="#5475FC" stroke-width="3"/>
<path d="M247.168 852.056L320.976 818.341L313.731 898.127L247.168 852.056Z" stroke="#5475FC" stroke-width="3"/>
<path d="M46.8515 493.85L151.673 470.402L119.888 571.497L46.8515 493.85Z" stroke="#5475FC" stroke-width="3"/>
<path d="M82.3221 38.3422L147.748 127.186L36.8829 138.547L82.3221 38.3422Z" fill="#5475FC" stroke="#5475FC" stroke-width="3"/>
<path d="M84.6054 967.671L183.84 977.669L125.428 1057.28L84.6054 967.671Z" fill="#5475FC" stroke="#5475FC" stroke-width="3"/>
<path d="M160.164 795.539L199.678 816.13L161.808 839.524L160.164 795.539Z" fill="#1B1C4A" stroke="#1B1C4A" stroke-width="3"/>
<path d="M1758.15 59.3224L1835.87 35.624L1817.86 113.741L1758.15 59.3224Z" stroke="#E54451" stroke-width="3"/>
<path d="M1706.6 428.708L1817.08 439.84L1752.05 528.47L1706.6 428.708Z" stroke="#E54451" stroke-width="3"/>
<path d="M1794.2 299.5L1845.27 304.645L1815.21 345.618L1794.2 299.5Z" stroke="#E54451" stroke-width="3"/>
<path d="M1755.06 108.151L1796.18 239.272L1660.28 208.768L1755.06 108.151Z" fill="#E54451" stroke="#E54451" stroke-width="3"/>
<path d="M1669.28 611.483L1772.8 648.016L1688.91 718.009L1669.28 611.483Z" fill="#E54451" stroke="#E54451" stroke-width="3"/>
<path d="M1802.17 852.056L1875.98 818.341L1868.73 898.127L1802.17 852.056Z" fill="#93324E" stroke="#93324E" stroke-width="3"/>
<path d="M1601.85 493.85L1706.67 470.402L1674.89 571.497L1601.85 493.85Z" stroke="#E54451" stroke-width="3"/>
<path d="M1637.32 38.3422L1702.75 127.186L1591.88 138.547L1637.32 38.3422Z" fill="#93324E" stroke="#93324E" stroke-width="3"/>
<path d="M1639.61 967.671L1738.84 977.669L1680.43 1057.28L1639.61 967.671Z" stroke="#E54451" stroke-width="3"/>
<path d="M1715.16 795.539L1754.68 816.13L1716.81 839.524L1715.16 795.539Z" stroke="#E54451" stroke-width="3"/>
</svg>
