<svg width="1920" height="1080" viewBox="0 0 1920 1080" fill="none" xmlns="http://www.w3.org/2000/svg">
<rect width="1920" height="1080" fill="#000124"/>
<path d="M203.146 59.3224L280.87 35.624L262.855 113.741L203.146 59.3224Z" stroke="#5475FC" stroke-width="3"/>
<path d="M151.599 428.708L262.08 439.839L197.047 528.47L151.599 428.708Z" fill="#5475FC" stroke="#5475FC" stroke-width="3"/>
<path d="M239.198 299.5L290.272 304.645L260.208 345.618L239.198 299.5Z" fill="#1B1C4A" stroke="#1B1C4A" stroke-width="3"/>
<path d="M200.062 108.151L241.179 239.272L105.278 208.768L200.062 108.151Z" stroke="#5475FC" stroke-width="3"/>
<path d="M114.284 611.482L217.803 648.016L133.907 718.009L114.284 611.482Z" stroke="#5475FC" stroke-width="3"/>
<path d="M247.169 852.056L320.976 818.341L313.731 898.127L247.169 852.056Z" stroke="#5475FC" stroke-width="3"/>
<path d="M46.8515 493.849L151.673 470.402L119.888 571.497L46.8515 493.849Z" stroke="#5475FC" stroke-width="3"/>
<path d="M82.3221 38.3422L147.748 127.186L36.8829 138.547L82.3221 38.3422Z" fill="#5475FC" stroke="#5475FC" stroke-width="3"/>
<path d="M84.6054 967.671L183.84 977.669L125.428 1057.28L84.6054 967.671Z" fill="#5475FC" stroke="#5475FC" stroke-width="3"/>
<path d="M160.164 795.539L199.677 816.13L161.808 839.524L160.164 795.539Z" fill="#1B1C4A" stroke="#1B1C4A" stroke-width="3"/>
<path d="M1759.15 59.3224L1836.87 35.624L1818.85 113.741L1759.15 59.3224Z" stroke="#5475FC" stroke-width="3"/>
<path d="M1707.6 428.708L1818.08 439.839L1753.05 528.47L1707.6 428.708Z" fill="#5475FC" stroke="#5475FC" stroke-width="3"/>
<path d="M1795.2 299.5L1846.27 304.645L1816.21 345.618L1795.2 299.5Z" fill="#1B1C4A" stroke="#1B1C4A" stroke-width="3"/>
<path d="M1756.06 108.151L1797.18 239.272L1661.28 208.768L1756.06 108.151Z" stroke="#5475FC" stroke-width="3"/>
<path d="M1670.28 611.482L1773.8 648.016L1689.91 718.009L1670.28 611.482Z" stroke="#5475FC" stroke-width="3"/>
<path d="M1803.17 852.056L1876.98 818.341L1869.73 898.127L1803.17 852.056Z" stroke="#5475FC" stroke-width="3"/>
<path d="M1602.85 493.849L1707.67 470.402L1675.89 571.497L1602.85 493.849Z" stroke="#5475FC" stroke-width="3"/>
<path d="M1638.32 38.3422L1703.75 127.186L1592.88 138.547L1638.32 38.3422Z" fill="#5475FC" stroke="#5475FC" stroke-width="3"/>
<path d="M1640.61 967.671L1739.84 977.669L1681.43 1057.28L1640.61 967.671Z" fill="#5475FC" stroke="#5475FC" stroke-width="3"/>
<path d="M1716.16 795.539L1755.68 816.13L1717.81 839.524L1716.16 795.539Z" fill="#1B1C4A" stroke="#1B1C4A" stroke-width="3"/>
</svg>
